<svg width="20" height="20" viewBox="0 0 20 20" fill="none" xmlns="http://www.w3.org/2000/svg">
<path d="M18.3346 9.99935C18.3346 5.39697 14.6036 1.66602 10.0013 1.66602C5.39893 1.66602 1.66797 5.39697 1.66797 9.99935C1.66797 14.6017 5.39893 18.3327 10.0013 18.3327C14.6036 18.3327 18.3346 14.6017 18.3346 9.99935Z" stroke="#1D2739" stroke-width="1.25"/>
<path d="M10.3332 6.91562L12.7664 6.10453C13.5049 5.85835 13.8743 5.73526 14.0692 5.93019C14.2641 6.12511 14.141 6.49438 13.8948 7.23291L13.0837 9.66615C12.6642 10.9247 12.4544 11.5539 12.0032 12.0052C11.5519 12.4564 10.9227 12.6662 9.6642 13.0857L7.23096 13.8967C6.49242 14.143 6.12316 14.2661 5.92823 14.0712C5.73331 13.8762 5.8564 13.5069 6.10257 12.7684L6.91367 10.3352C7.33317 9.07665 7.54292 8.4474 7.99417 7.99613C8.44545 7.54487 9.0747 7.33512 10.3332 6.91562Z" stroke="#1D2739" stroke-width="1.25" stroke-linecap="round" stroke-linejoin="round"/>
<path d="M10.0014 10L9.99609 10.0053" stroke="#1D2739" stroke-width="1.66667" stroke-linecap="round" stroke-linejoin="round"/>
</svg>
