<svg width="20" height="20" viewBox="0 0 20 20" fill="none" xmlns="http://www.w3.org/2000/svg">
<path d="M10.0013 18.334L8.33464 13.334H1.66797L3.33464 18.334H10.0013ZM10.0013 18.334H13.3346" stroke="#1D2739" stroke-width="1.25" stroke-linecap="round" stroke-linejoin="round"/>
<path d="M9.9987 10.834V10.4173C9.9987 8.84598 9.9987 8.06029 9.51053 7.57214C9.02236 7.08398 8.23671 7.08398 6.66536 7.08398C5.09401 7.08398 4.30834 7.08398 3.82019 7.57214C3.33203 8.06029 3.33203 8.84598 3.33203 10.4173V10.834" stroke="#1D2739" stroke-width="1.25" stroke-linecap="round" stroke-linejoin="round"/>
<path d="M15.8333 10.8327C15.8333 11.7532 15.0872 12.4993 14.1667 12.4993C13.2462 12.4993 12.5 11.7532 12.5 10.8327C12.5 9.91218 13.2462 9.16602 14.1667 9.16602C15.0872 9.16602 15.8333 9.91218 15.8333 10.8327Z" stroke="#1D2739" stroke-width="1.25"/>
<path d="M8.33333 3.33268C8.33333 4.25316 7.58714 4.99935 6.66667 4.99935C5.74619 4.99935 5 4.25316 5 3.33268C5 2.41221 5.74619 1.66602 6.66667 1.66602C7.58714 1.66602 8.33333 2.41221 8.33333 3.33268Z" stroke="#1D2739" stroke-width="1.25"/>
<path d="M11.668 14.584H16.668C17.5885 14.584 18.3346 15.3302 18.3346 16.2507V16.6673C18.3346 17.5878 17.5885 18.334 16.668 18.334H15.8346" stroke="#1D2739" stroke-width="1.25" stroke-linecap="round"/>
</svg>
