<svg width="20" height="20" viewBox="0 0 20 20" fill="none" xmlns="http://www.w3.org/2000/svg">
<path d="M6.25 9.99935H11.25M6.25 6.66602H8.75" stroke="#1D2739" stroke-width="1.25" stroke-linecap="round" stroke-linejoin="round"/>
<path d="M7.08203 16.666C7.95735 17.3908 9.01078 17.8525 10.2183 17.9317C11.1697 17.9941 12.1629 17.994 13.1124 17.9317C13.4394 17.9103 13.7958 17.8333 14.1027 17.7085C14.4441 17.5698 14.6149 17.5003 14.7018 17.5108C14.7885 17.5213 14.9144 17.613 15.1663 17.7963C15.6103 18.1193 16.1696 18.3514 16.9991 18.3315C17.4185 18.3214 17.6283 18.3163 17.7221 18.1584C17.816 18.0004 17.6991 17.7818 17.4652 17.3444C17.1409 16.7378 16.9354 16.0434 17.2468 15.487C17.7831 14.6923 18.2386 13.7511 18.3052 12.7346C18.3409 12.1884 18.3409 11.6228 18.3052 11.0766C18.2609 10.3993 18.0964 9.75543 17.833 9.16602" stroke="#1D2739" stroke-width="1.25" stroke-linecap="round" stroke-linejoin="round"/>
<path d="M10.2888 14.5717C13.2518 14.3765 15.612 12.0051 15.8061 9.02802C15.8441 8.44543 15.8441 7.84211 15.8061 7.25951C15.612 4.28242 13.2518 1.91102 10.2888 1.71589C9.27797 1.64932 8.22258 1.64946 7.21379 1.71589C4.25083 1.91102 1.89068 4.28242 1.69647 7.25951C1.65847 7.84211 1.65847 8.44543 1.69647 9.02802C1.7672 10.1123 2.25124 11.1163 2.82107 11.964C3.15194 12.5574 2.93358 13.2982 2.58895 13.9452C2.34047 14.4117 2.21623 14.6449 2.31599 14.8134C2.41574 14.9819 2.63857 14.9873 3.08423 14.9981C3.96557 15.0193 4.55987 14.7718 5.03162 14.4272C5.29917 14.2317 5.43295 14.1339 5.52515 14.1228C5.61735 14.1115 5.7988 14.1855 6.16164 14.3336C6.48775 14.4667 6.8664 14.5488 7.21379 14.5717C8.22258 14.6381 9.27797 14.6382 10.2888 14.5717Z" stroke="#1D2739" stroke-width="1.25" stroke-linejoin="round"/>
</svg>
