<svg width="20" height="20" viewBox="0 0 20 20" fill="none" xmlns="http://www.w3.org/2000/svg">
<path d="M1.66797 6.66667C1.66797 7.78482 8.41372 10.8333 9.98972 10.8333C11.5656 10.8333 18.3115 7.78482 18.3115 6.66667C18.3115 5.54852 11.5656 2.5 9.98972 2.5C8.41372 2.5 1.66797 5.54852 1.66797 6.66667Z" stroke="#1D2739" stroke-width="1.25" stroke-linecap="round" stroke-linejoin="round"/>
<path d="M4.99609 9.16602L5.20035 13.8576C5.20444 13.9515 5.21459 14.0456 5.24182 14.1356C5.32596 14.4138 5.48104 14.6665 5.71764 14.8363C7.56886 16.1648 12.4094 16.1648 14.2606 14.8363C14.4973 14.6665 14.6523 14.4138 14.7365 14.1356C14.7636 14.0456 14.7738 13.9515 14.778 13.8576L14.9821 9.16602" stroke="#1D2739" stroke-width="1.25" stroke-linecap="round" stroke-linejoin="round"/>
<path d="M17.0624 7.91602V13.7493M17.0624 13.7493C16.4024 14.9546 16.1106 15.6003 15.8142 16.666C15.7499 17.0452 15.8009 17.2363 16.0623 17.4059C16.1684 17.4748 16.296 17.4993 16.4225 17.4993H17.6895C17.8243 17.4993 17.9602 17.4713 18.0711 17.3948C18.314 17.2273 18.3765 17.0435 18.3107 16.666C18.0509 15.6765 17.7199 15 17.0624 13.7493Z" stroke="#1D2739" stroke-width="1.25" stroke-linecap="round" stroke-linejoin="round"/>
</svg>
