<svg width="30" height="31" viewBox="0 0 30 31" fill="none" xmlns="http://www.w3.org/2000/svg">
<path d="M3.1624 19.3995C2.89659 21.142 4.085 22.3515 5.54006 22.9542C11.1185 25.2652 18.8815 25.2652 24.4599 22.9542C25.915 22.3515 27.1034 21.142 26.8376 19.3995C26.6743 18.3286 25.8665 17.4369 25.268 16.5661C24.4841 15.4116 24.4063 14.1522 24.4061 12.8125C24.4061 7.63483 20.1949 3.4375 15 3.4375C9.80516 3.4375 5.59391 7.63483 5.59391 12.8125C5.59379 14.1522 5.5159 15.4116 4.73201 16.5661C4.13355 17.4369 3.32576 18.3286 3.1624 19.3995Z" stroke="#141B34" stroke-width="1.875" stroke-linecap="round" stroke-linejoin="round"/>
<path d="M10 24.6875C10.5731 26.844 12.5944 28.4375 15 28.4375C17.4056 28.4375 19.4269 26.844 20 24.6875" stroke="#141B34" stroke-width="1.875" stroke-linecap="round" stroke-linejoin="round"/>
</svg>
