<svg width="20" height="20" viewBox="0 0 20 20" fill="none" xmlns="http://www.w3.org/2000/svg">
<path d="M9.18797 18.334C12.7715 18.334 15.7695 15.8275 16.5246 12.4721C16.6792 11.7848 16.7566 11.4412 16.5056 11.1276C16.2548 10.814 15.8488 10.814 15.0369 10.814H9.18797M9.18797 18.334C5.03479 18.334 1.66797 14.9672 1.66797 10.814C1.66797 7.23052 4.17446 4.23247 7.52989 3.47739C8.21714 3.32274 8.5608 3.24541 8.87439 3.49628C9.18797 3.74715 9.18797 4.15314 9.18797 4.9651V10.814M9.18797 18.334V10.814" stroke="#1D2739" stroke-width="1.25" stroke-linejoin="round"/>
<path d="M17.9631 5.85474C17.2767 4.11258 15.8881 2.72396 14.1459 2.03764C13.2332 1.67808 12.7769 1.4983 12.2224 1.87579C11.668 2.25328 11.668 2.87071 11.668 4.10557V5.79641C11.668 6.99202 11.668 7.58982 12.0394 7.96126C12.4108 8.33268 13.0086 8.33268 14.2042 8.33268H15.8951C17.13 8.33268 17.7474 8.33268 18.1249 7.77824C18.5024 7.22381 18.3226 6.76745 17.9631 5.85474Z" fill="#1D2739" stroke="#1D2739" stroke-width="1.25" stroke-linejoin="round"/>
</svg>
