<svg width="16" height="16" viewBox="0 0 16 16" fill="none" xmlns="http://www.w3.org/2000/svg">
<path d="M13.5928 7.57338L4.59423 2.0741C4.51843 2.02778 4.43167 2.00248 4.34286 2.00082C4.25405 1.99916 4.1664 2.02118 4.08892 2.06463C4.01145 2.10808 3.94695 2.17139 3.90205 2.24803C3.85716 2.32468 3.8335 2.41191 3.8335 2.50073V13.4993C3.8335 13.5881 3.85716 13.6754 3.90205 13.752C3.94695 13.8287 4.01145 13.892 4.08892 13.9354C4.1664 13.9789 4.25405 14.0009 4.34286 13.9992C4.43167 13.9976 4.51843 13.9723 4.59423 13.9259L13.5928 8.42666C13.6659 8.38199 13.7262 8.3193 13.7681 8.2446C13.81 8.16989 13.832 8.08567 13.832 8.00002C13.832 7.91437 13.81 7.83015 13.7681 7.75545C13.7262 7.68074 13.6659 7.61805 13.5928 7.57338Z" fill="#1D2026"/>
</svg>
