<svg width="25" height="25" viewBox="0 0 25 25" fill="none" xmlns="http://www.w3.org/2000/svg">
<path d="M24.2901 23.7136L18.4577 17.8812C20.0222 16.0825 20.9694 13.7357 20.9694 11.1708C20.9694 5.52464 16.377 0.9375 10.7362 0.9375C5.09007 0.9375 0.50293 5.52996 0.50293 11.1708C0.50293 16.8116 5.09539 21.404 10.7362 21.404C13.3012 21.404 15.6479 20.4568 17.4466 18.8923L23.279 24.7246C23.4173 24.863 23.6036 24.9375 23.7845 24.9375C23.9655 24.9375 24.1517 24.8683 24.2901 24.7246C24.5668 24.4479 24.5668 23.9903 24.2901 23.7136ZM1.93442 11.1708C1.93442 6.31754 5.88297 2.37431 10.7309 2.37431C15.5841 2.37431 19.5273 6.32287 19.5273 11.1708C19.5273 16.0187 15.5841 19.9725 10.7309 19.9725C5.88297 19.9725 1.93442 16.024 1.93442 11.1708Z" fill="#A4A4A4"/>
</svg>
