<svg width="20" height="20" viewBox="0 0 20 20" fill="none" xmlns="http://www.w3.org/2000/svg">
<path d="M15.8346 4.16602L10.0013 1.66602L4.16797 4.16602L7.08464 5.41602V7.08268C7.08464 7.08268 8.05686 6.66602 10.0013 6.66602C11.9457 6.66602 12.918 7.08268 12.918 7.08268V5.41602L15.8346 4.16602ZM15.8346 4.16602V7.49935" stroke="#1D2739" stroke-width="1.25" stroke-linecap="round" stroke-linejoin="round"/>
<path d="M12.9154 7.08398V7.91732C12.9154 9.52815 11.6095 10.834 9.9987 10.834C8.38786 10.834 7.08203 9.52815 7.08203 7.91732V7.08398" stroke="#1D2739" stroke-width="1.25" stroke-linecap="round" stroke-linejoin="round"/>
<path d="M6.48677 13.9192C5.56979 14.4896 3.16552 15.6543 4.62988 17.1116C5.34521 17.8235 6.1419 18.3327 7.14354 18.3327H12.8591C13.8607 18.3327 14.6574 17.8235 15.3727 17.1116C16.8371 15.6543 14.4328 14.4896 13.5158 13.9192C11.3656 12.5816 8.63705 12.5816 6.48677 13.9192Z" stroke="#1D2739" stroke-width="1.25" stroke-linecap="round" stroke-linejoin="round"/>
</svg>
