<svg width="16" height="16" viewBox="0 0 16 16" fill="none" xmlns="http://www.w3.org/2000/svg">
<path d="M2 10.5V5.50002C2 5.1464 2.14048 4.80726 2.39052 4.55721C2.64057 4.30716 2.97971 4.16669 3.33333 4.16669H9C9.35362 4.16669 9.69276 4.30716 9.94281 4.55721C10.1929 4.80726 10.3333 5.1464 10.3333 5.50002V10.5C10.3333 10.8536 10.1929 11.1928 9.94281 11.4428C9.69276 11.6929 9.35362 11.8334 9 11.8334H3.33333C2.97971 11.8334 2.64057 11.6929 2.39052 11.4428C2.14048 11.1928 2 10.8536 2 10.5ZM13.4453 4.66069L10.7787 7.03602C10.7435 7.06723 10.7154 7.10552 10.6961 7.14837C10.6768 7.19123 10.6667 7.23768 10.6667 7.28469V8.47002C10.6667 8.51702 10.6768 8.56348 10.6961 8.60633C10.7154 8.64919 10.7435 8.68748 10.7787 8.71869L13.4453 11.094C13.4934 11.1367 13.5527 11.1646 13.6162 11.1743C13.6798 11.184 13.7447 11.1751 13.8033 11.1488C13.8619 11.1225 13.9117 11.0797 13.9466 11.0258C13.9815 10.9718 14 10.9089 14 10.8447V4.91002C14 4.84577 13.9815 4.78288 13.9466 4.72892C13.9117 4.67497 13.8619 4.63225 13.8033 4.6059C13.7447 4.57956 13.6798 4.57071 13.6162 4.58043C13.5527 4.59015 13.4934 4.61802 13.4453 4.66069Z" stroke="black" stroke-linecap="round" stroke-linejoin="round"/>
</svg>
